<?xml version="1.0" encoding="utf-8"?>
<!-- Generator: Adobe Illustrator 21.0.0, SVG Export Plug-In . SVG Version: 6.00 Build 0)  -->
<svg version="1.1" id="Layer_1" xmlns="http://www.w3.org/2000/svg" xmlns:xlink="http://www.w3.org/1999/xlink" x="0px" y="0px"
	 viewBox="0 0 933 996" style="enable-background:new 0 0 933 996;" xml:space="preserve">
<style type="text/css">
	.st0{fill:#FFFFFF;}
</style>
<g>
	<path class="st0" d="M537,1.4c18.2,7.7,23.6,21.7,23.5,41c-0.5,127.2-0.3,254.4-0.3,381.6c0,3.8,0,7.6,0,12.6c4.2,0,7.6,0,11.1,0
		c35.9,0,71.8,0.2,107.8-0.1c14.9-0.1,27,4.3,33.5,18.4c6.5,14.2,1.6,26.2-8.1,37.2C634.2,572.5,564,653,493.6,733.4
		c-16.7,19-36.2,19-52.9,0C370.3,653,300,572.5,229.6,492.3c-9.8-11.1-14.7-23.1-8.1-37.2c6.4-14,18.6-18.5,33.5-18.4
		c39.1,0.2,78.3,0.1,118.9,0.1c0-4.1,0-7.8,0-11.6c0-127.5,0.3-255.1-0.3-382.6c-0.1-19.2,5.4-33.3,23.5-41
		C443.8,1.4,490.5,1.4,537,1.4z"/>
	<path class="st0" d="M0.8,685.7c41.7,0,82.4,0,124.1,0c0,61.8,0,123.4,0,185.6c228.2,0,455.4,0,683.6,0c0-61.4,0-123,0-185.3
		c41.9,0,82.9,0,124.4,0c0.1,3.2,0.4,6.3,0.4,9.5c0,77.4,0,154.8,0,232.2c0,43.3-25.5,68.6-69,68.6c-264.8,0-529.7,0-794.5,0
		c-43.9,0-69.1-25.4-69.1-69.5c0-76.7,0-153.5,0-230.2C0.8,693.3,0.8,690,0.8,685.7z"/>
</g>
</svg>
