<?xml version="1.0" encoding="utf-8"?>
<!-- Generator: Adobe Illustrator 21.0.0, SVG Export Plug-In . SVG Version: 6.00 Build 0)  -->
<svg version="1.1" id="Layer_1" xmlns="http://www.w3.org/2000/svg" xmlns:xlink="http://www.w3.org/1999/xlink" x="0px" y="0px"
	 viewBox="0 0 933 996" style="enable-background:new 0 0 933 996;" xml:space="preserve">
<style type="text/css">
	.st0{fill:#FFFFFF;}
</style>
<path class="st0" d="M746.8,935.9c-55.9,0-111.7,0-167.6,0c-16.1-6-21.9-17.8-21.7-34.7c0.4-69.4,0.2-138.9,0.2-208.3
	c0-31-18.8-49.6-50-49.8c-25.8-0.1-51.5,0-77.3,0c-33.7,0-51.8,18-51.8,51.5c0,68.8-0.3,137.7,0.2,206.5
	c0.1,16.8-5.5,28.8-21.7,34.8c-55.9,0-111.7,0-167.6,0c-0.8-0.4-1.5-1.2-2.3-1.3c-43.5-5.4-86.4-45.8-85.6-104.9
	c1.2-87.7,0.3-175.4,0.3-263.1c0-3.5,0-7,0-10.1c-1.8-0.6-2.4-1-2.9-1c-4.5-0.1-9.1,0-13.6-0.2c-33.4-1.7-58.2-17.4-73.9-46.7
	c-4.3-8.1-6.4-17.4-9.6-26.2c0-8.5,0-17,0-25.5c5.5-27.2,23.1-46.3,42-65.1C163.7,272.5,283,152.8,402.6,33.3
	C442.9-7,493.2-7,533.5,33.2C657.1,156.8,780.7,280.4,904.3,404c3.2,3.2,6.5,6.4,9.4,9.9c42.6,50.2,15.4,127.6-49.2,139.7
	c-9.7,1.8-19.7,1.7-30.2,2.6c0,4,0,7.6,0,11.2c0,90.4,0.3,180.9-0.2,271.3c-0.2,42.6-30.8,81.3-71.7,93
	C757.2,933.2,752,934.5,746.8,935.9z"/>
</svg>
