<?xml version="1.0" encoding="utf-8"?>
<!-- Generator: Adobe Illustrator 21.0.0, SVG Export Plug-In . SVG Version: 6.00 Build 0)  -->
<svg version="1.1" id="Layer_1" xmlns="http://www.w3.org/2000/svg" xmlns:xlink="http://www.w3.org/1999/xlink" x="0px" y="0px"
	 viewBox="0 0 933 996" style="enable-background:new 0 0 933 996;" xml:space="preserve">
<style type="text/css">
	.st0{fill:#FFFFFF;}
</style>
<path class="st0" d="M850,437c10.9-13.1,23-20.5,39.1-20.2c31.8,0.7,55.1,35.8,38.4,62.8c-30.7,49.6-63.4,98.1-97.6,145.3
	c-17.7,24.5-56.8,22.7-77,0c-3-3.4-5.9-6.9-8.5-10.7c-28.1-42-56.3-83.9-84.1-126.1c-17.2-26-8.4-57.5,18.8-68.1
	c18.1-7.1,34.3-2.7,50.3,11.8c-1.2-8.6-1.7-15.3-3.2-21.8c-22.4-100.8-79.4-175-173.4-218.1c-91-41.8-182.7-38.3-270.9,8.7
	c-79.6,42.4-131.6,108.9-152.3,197c-24.1,102.7-1.2,195.3,68.6,274.7c58.1,66.1,132.4,99.9,220.4,102.7c23.7,0.8,44.4,7,57.5,28.3
	c12.3,19.9,12.8,40.8,1.1,61.1c-11.8,20.4-30.5,29.6-53.7,29.5c-200.9-1-375.3-145.5-413.8-342.8C-34,325.8,109.6,105.1,334,55.7
	c120.8-26.6,233.5-4.6,335.1,66.7c95.9,67.3,154,159.7,175.5,274.9C846.9,409.7,848,422.4,850,437z"/>
</svg>
